# xmcd
#
# Track frame offsets:
#	150
#	13148
#	26167
#	37927
#	47790
#	58601
#	71100
#	82463
#	93833
#	107716
#	120546
#	132962
#	142181
#	156149
#	167153
#
# Disc length: 2389 seconds
#
# Revision: 1
# Processed by: cddbd v1.5.2PL0 Copyright (c) Steve Scherf et al.
# Submitted via: EasyCDDAExtractor 12.0.5.1
#
DISCID=d609530f
DTITLE=Various Artist - Golden Age of Country - Ring of Fire Disc 2
DYEAR=2009
DGENRE=Country
TTITLE0=Billy Walker - Cross the Brazos at Waco
TTITLE1=Marty Robbins - Devil Woman
TTITLE2=Porter Wagoner - Misery Loves Compay
TTITLE3=Eddy Arnold - What's He Doing in My World
TTITLE4=Tammy Wynette - Singing My Song
TTITLE5=Bobby Bare - Four Strong Winds
TTITLE6=Elvis Presley - I Forgot to Remember to Forget
TTITLE7=Billy Grammer - Gotta Travel On
TTITLE8=Lefty Frizzell - Mom and Dad's Waltz
TTITLE9=Carl Smith - Let Old Mother Nature Have Her Way
TTITLE10=Ray Price - The Same Old Me
TTITLE11=Chet Atkins - Yakety Axe
TTITLE12=Johnny Cash - It Ain't Me, Babe
TTITLE13=Jim Reeves - I Guess I'm Crazy
TTITLE14=Dottie West - Would You Hold It Against Me
EXTD=
EXTT0=
EXTT1=
EXTT2=
EXTT3=
EXTT4=
EXTT5=
EXTT6=
EXTT7=
EXTT8=
EXTT9=
EXTT10=
EXTT11=
EXTT12=
EXTT13=
EXTT14=
PLAYORDER=
